{
    "asset" : {
        "generator" : "Khronos glTF Blender I/O v1.8.19",
        "version" : "2.0"
    },
    "extensionsUsed" : [
        "EXT_collections"
    ],
    "scene" : 0,
    "scenes" : [
        {
            "extensions" : {
                "EXT_collections" : {
                    "tree" : [
                        {
                            "collection" : "enemySpawns"
                        },
                        {
                            "collection" : "geometry"
                        },
                        {
                            "collection" : "partySpawns"
                        }
                    ]
                }
            },
            "name" : "Scene",
            "nodes" : [
                0,
                1,
                2,
                3,
                4,
                5,
                6
            ]
        }
    ],
    "nodes" : [
        {
            "extensions" : {
                "EXT_collections" : {
                    "collections" : [
                        "enemySpawns"
                    ]
                }
            },
            "name" : "enemySpawn2",
            "scale" : [
                3.087106466293335,
                1,
                3.087106466293335
            ],
            "translation" : [
                9.974594116210938,
                0,
                7.426923751831055
            ]
        },
        {
            "extensions" : {
                "EXT_collections" : {
                    "collections" : [
                        "enemySpawns"
                    ]
                }
            },
            "name" : "enemySpawn1",
            "scale" : [
                3.087106466293335,
                1,
                3.087106466293335
            ],
            "translation" : [
                0.039605140686035156,
                0,
                5.138553619384766
            ]
        },
        {
            "extensions" : {
                "EXT_collections" : {
                    "collections" : [
                        "enemySpawns"
                    ]
                }
            },
            "name" : "enemySpawn3",
            "scale" : [
                3.087106466293335,
                1,
                3.087106466293335
            ],
            "translation" : [
                -10.891809463500977,
                0,
                9.815988540649414
            ]
        },
        {
            "extensions" : {
                "EXT_collections" : {
                    "collections" : [
                        "geometry"
                    ]
                }
            },
            "mesh" : 0,
            "name" : "platform1",
            "scale" : [
                17.5538387298584,
                0.14347857236862183,
                17.5538387298584
            ],
            "translation" : [
                -0.7125364542007446,
                -0.19245219230651855,
                -0.4830970764160156
            ]
        },
        {
            "extensions" : {
                "EXT_collections" : {
                    "collections" : [
                        "partySpawns"
                    ]
                }
            },
            "name" : "partySpawn",
            "scale" : [
                3.087106466293335,
                1,
                3.087106466293335
            ],
            "translation" : [
                9.68930435180664,
                0,
                -9.419210433959961
            ]
        },
        {
            "extensions" : {
                "EXT_collections" : {
                    "collections" : [
                        "partySpawns"
                    ]
                }
            },
            "name" : "partySpawn2",
            "scale" : [
                3.087106466293335,
                1,
                3.087106466293335
            ],
            "translation" : [
                -0.24568414688110352,
                -2.4139881134033203e-06,
                -11.70758056640625
            ]
        },
        {
            "extensions" : {
                "EXT_collections" : {
                    "collections" : [
                        "partySpawns"
                    ]
                }
            },
            "name" : "partySpawn3",
            "scale" : [
                3.087106466293335,
                1,
                3.087106466293335
            ],
            "translation" : [
                -11.177099227905273,
                -2.4139881134033203e-06,
                -7.030145645141602
            ]
        }
    ],
    "materials" : [
        {
            "doubleSided" : true,
            "name" : "Material",
            "pbrMetallicRoughness" : {
                "baseColorFactor" : [
                    0.023620659485459328,
                    0.07390748709440231,
                    0.0800129845738411,
                    1
                ],
                "metallicFactor" : 0,
                "roughnessFactor" : 0.4000000059604645
            }
        }
    ],
    "meshes" : [
        {
            "name" : "Cube.002",
            "primitives" : [
                {
                    "attributes" : {
                        "POSITION" : 0,
                        "NORMAL" : 1,
                        "TEXCOORD_0" : 2
                    },
                    "indices" : 3,
                    "material" : 0
                }
            ]
        }
    ],
    "accessors" : [
        {
            "bufferView" : 0,
            "componentType" : 5126,
            "count" : 24,
            "max" : [
                1,
                1,
                1
            ],
            "min" : [
                -1,
                -1,
                -1
            ],
            "type" : "VEC3"
        },
        {
            "bufferView" : 1,
            "componentType" : 5126,
            "count" : 24,
            "type" : "VEC3"
        },
        {
            "bufferView" : 2,
            "componentType" : 5126,
            "count" : 24,
            "type" : "VEC2"
        },
        {
            "bufferView" : 3,
            "componentType" : 5123,
            "count" : 36,
            "type" : "SCALAR"
        }
    ],
    "bufferViews" : [
        {
            "buffer" : 0,
            "byteLength" : 288,
            "byteOffset" : 0
        },
        {
            "buffer" : 0,
            "byteLength" : 288,
            "byteOffset" : 288
        },
        {
            "buffer" : 0,
            "byteLength" : 192,
            "byteOffset" : 576
        },
        {
            "buffer" : 0,
            "byteLength" : 72,
            "byteOffset" : 768
        }
    ],
    "buffers" : [
        {
            "byteLength" : 840,
            "uri" : "data:application/octet-stream;base64,"
        }
    ]
}
